<svg xmlns="http://www.w3.org/2000/svg" width="580" height="580"><defs/><g fill="none" fill-rule="evenodd" transform="translate(35 13)"><ellipse cx="254.9" cy="300.7" fill="#65c9ff" fill-rule="nonzero" rx="254.9" ry="253.5"/><path fill="#25557c" fill-rule="nonzero" d="M251.6 363.6c43.5 0 83.5 9.8 115.4 26.1 39.49 20.36 66.51 50.92 72.19 85.7-46.41 48.56-111.82 78.8-184.29 78.8-75.43 0-143.2-32.76-189.88-84.83 7.7-32.28 33.91-60.48 71.18-79.57 31.9-16.4 71.9-26.2 115.4-26.2z"/><g fill="#fff" fill-rule="nonzero"><path d="M318.4 415.1a7.5 7.5 0 017.5 7.25v.24l.1 92.9a7.5 7.5 0 01-15 .26v-.24l-.1-92.9a7.5 7.5 0 017.5-7.51zM186.82 415.1a7.5 7.5 0 017.48 7.28v.24l-.3 124.3a254.04 254.04 0 01-15-4.15l.3-120.19a7.5 7.5 0 017.52-7.48z"/></g><path fill="#000" fill-opacity=".18" d="M251.6 363.6c43.5 0 83.5 9.8 115.4 26.1a188.21 188.21 0 0117.34 10.12C365.37 431.94 313.28 455 252 455c-61.5 0-113.75-23.23-132.55-55.53 5.3-3.44 10.89-6.67 16.75-9.67 31.9-16.4 71.9-26.2 115.4-26.2z"/><path fill="#25557c" d="M252.41 343h3.36c28.98.08 30.83 1.08 56.26 3.8 26.49 2.84 51.9 15.74 51.9 38.38 0 22.42-36.82 68.58-109.71 69.5l-2.22.02v-.02h-2.3c-72.16-.91-108.96-46.16-109.69-68.82l-.01-.68c0-22.64 25.4-35.54 51.9-38.38 25.43-2.72 27.27-3.72 56.26-3.8H252z"/><g fill-rule="nonzero" transform="translate(9.9)"><ellipse cx="243.5" cy="144.7" fill="#111d21" rx="133.2" ry="69.9"/><path fill="#1f333c" d="M242.7 0c38.87 0 80.68 9.72 94.41 60.66C425.16 77.86 487 118.7 487 166.3c0 44.2-53.2 82.5-131.1 101.5.08-1.36.1-2.66.1-3.99V178.1c7.5-6.9 11.7-14.6 11.7-22.7 0-12.6-10.1-24.1-27-33.3-22.8-12.3-57.9-20.2-97.3-20.2s-74.5 7.9-97.3 20.2c-16.9 9.1-27 20.7-27 33.3 0 8.1 4.2 15.8 11.7 22.7v84.7c0 1.7 0 3.3.1 5C53.2 248.8 0 210.5 0 166.3 0 119.01 61.13 78.4 148.19 61c13.5-50.71 54.69-60.8 93.3-61z"/></g><g><g fill-rule="nonzero" transform="translate(122 101.3)"><path fill="#edb98a" d="M132.6 327c-26.6 0-48.1-21.5-48.1-48.1v-40.4h96.3v40.4c0 26.6-21.6 48.1-48.2 48.1z"/><path fill="#ddac83" d="M132.9 289.6c-26.6 0-48.1-12.5-48.1-27.9v-23.5H181v23.5c0 15.4-21.5 27.9-48.1 27.9z"/><path fill="#edb98a" d="M262.7 139.5c0 10.6-8.3 19.3-18.8 19.8v2.3c0 1.7 0 3.3-.1 5-2.6 54.1-47.3 97.2-102 97.2H121c-54.7 0-99.4-43.1-102-97.2-.1-1.7-.1-3.3-.1-5v-2.3C8.4 158.8.1 150.1.1 139.5v-34.8a19.83 19.83 0 0118.8-19.8V65.7c0-16.9 5.7-32.5 15.2-44.9C56.9 8.5 92 .6 131.4.6s74.5 7.9 97.3 20.2c9.5 12.4 15.2 28 15.2 44.9v19.2c5.1.2 9.7 2.4 13 5.8 3.6 3.6 5.8 8.6 5.8 14z"/><circle cx="74.3" cy="113.3" r="10.3" fill="#5f4a37"/><circle cx="187.8" cy="113.3" r="10.3" fill="#5f4a37"/></g><path stroke="#5f4a37" stroke-linecap="round" stroke-width="8" d="M166 188c4.8-11.9 34.1-25.1 55-15.4M338.6 188c-4.8-11.9-34.1-25.1-55-15.4"/><path fill="#473729" fill-rule="nonzero" d="M283.6 293.2c0 14.35-13.6 26-30.3 26s-30.3-11.65-30.3-26z"/><path fill="#c79b74" fill-rule="nonzero" d="M278 255.3c0 8.86-11 16-24.7 16-13.6 0-24.7-7.14-24.7-16z"/></g><path fill="#1a2124" fill-opacity=".9" fill-rule="nonzero" d="M365.9 192v70.9c0 1.7 0 3.3-.1 5-2.6 54.1-47.3 97.2-102 97.2H243c-54.7 0-99.4-43.1-102-97.2-.08-1.36-.1-2.66-.1-3.99v-3.31h-.1V192l.5 2.4c1.66 7.99 6.78 34.33 6.9 54.57v.73c0 24.2 14 52.4 32.3 52.4 16.7 0 15.4-32.1 50.5-32.1 8.22 0 17.77.7 21.86 3.76l.15.1.1-.07c4.26-3.1 14.24-3.79 22.49-3.79 35.1 0 33.9 32.1 50.5 32.1 18.12 0 32.02-27.64 32.3-51.67v-.73c.1-24.2 7.5-57.7 7.5-57.7zm-112.86 89.1l-.08.07c-3.78 2.95-12.76 3.63-24.16 3.63-19.6 0-23.5 16.4-23.5 25.7s10 29.9 23.1 29.9c13 0 12.6-8.7 24.8-8.8h.2c12.2.1 11.8 8.8 24.8 8.8 13.1 0 23.1-20.7 23.1-29.9v-.56c-.16-9.3-4.3-25.14-23.5-25.14h-1.73c-10.5-.08-19.05-.86-22.88-3.58zm-.03-7.23l-.07.05c-1.22.93-1.92 2.08-1.92 3.48 0 1.43.63 2.59 1.8 3.53l.22.18.07-.06a4.57 4.57 0 001.79-3.46v-.19a4.3 4.3 0 00-1.66-3.34z"/></g></svg>