<?xml version="1.0" standalone="no"?>
<!DOCTYPE svg PUBLIC "-//W3C//DTD SVG 20010904//EN"
 "http://www.w3.org/TR/2001/REC-SVG-20010904/DTD/svg10.dtd">
<svg version="1.0" xmlns="http://www.w3.org/2000/svg"
 width="560.000000pt" height="560.000000pt" viewBox="0 0 560.000000 560.000000"
 preserveAspectRatio="xMidYMid meet">
<metadata>
Created by potrace 1.11, written by Peter Selinger 2001-2013
</metadata>
<g transform="translate(0.000000,560.000000) scale(0.100000,-0.100000)"
fill="#000000" stroke="none">
<path d="M2498 5550 c-212 -38 -403 -157 -523 -325 -57 -81 -84 -134 -115
-234 l-27 -85 -94 -21 c-512 -118 -904 -307 -1144 -550 -104 -104 -149 -170
-193 -277 -69 -172 -49 -351 59 -535 53 -89 228 -259 346 -337 220 -145 505
-265 819 -346 40 -10 42 -12 48 -58 11 -76 55 -221 91 -300 103 -222 300 -421
500 -505 162 -68 338 -107 510 -114 114 -4 146 -2 258 21 248 51 376 105 517
221 188 154 330 405 371 655 l12 70 41 10 c314 81 599 201 819 346 118 78 293
248 346 337 132 224 132 429 0 654 -53 89 -217 248 -343 332 -239 159 -538
281 -897 367 l-115 27 -18 67 c-68 265 -281 479 -558 561 -67 20 -98 22 -368
25 -162 1 -316 -1 -342 -6z m705 -1126 c298 -33 499 -96 586 -183 70 -70 121
-266 124 -480 2 -107 -2 -149 -16 -196 -14 -46 -20 -117 -27 -300 -13 -348
-39 -465 -126 -582 -32 -43 -173 -128 -235 -143 -82 -20 -91 -13 -139 100 -23
55 -50 111 -61 123 -25 33 -122 82 -199 102 -75 20 -234 14 -282 -10 -24 -11
-32 -11 -56 0 -47 24 -207 30 -281 11 -76 -19 -175 -70 -200 -103 -11 -12 -38
-68 -61 -123 -48 -113 -57 -120 -139 -100 -62 15 -203 100 -235 143 -87 117
-113 234 -126 582 -7 183 -13 254 -27 300 -21 69 -23 283 -3 383 18 91 70 250
92 277 67 85 231 146 499 185 276 41 627 46 912 14z m-1541 -1151 c-1 -196 -4
-359 -6 -361 -9 -8 -86 40 -110 69 -59 70 -61 78 -61 289 0 181 2 198 22 235
31 58 109 123 148 125 7 0 9 -124 7 -357z m2326 338 c44 -23 82 -62 108 -111
17 -31 19 -59 19 -230 0 -211 -2 -219 -61 -289 -24 -29 -101 -77 -110 -69 -7
8 -9 718 -1 718 4 0 24 -9 45 -19z m-1123 -900 c22 -6 87 -11 145 -11 120 -1
173 -18 209 -68 99 -139 77 -289 -60 -416 -92 -85 -149 -93 -223 -29 -85 71
-189 70 -275 -4 -75 -64 -148 -47 -245 57 -115 123 -127 262 -35 392 37 51 88
67 214 69 63 0 127 6 150 14 41 14 52 14 120 -4z"/>
<path d="M2211 3825 c-91 -21 -199 -75 -248 -125 -44 -43 -52 -67 -31 -88 20
-20 43 -14 79 24 83 87 276 140 412 115 41 -7 65 -8 79 0 27 14 19 51 -14 67
-42 20 -203 24 -277 7z"/>
<path d="M3157 3830 c-55 -10 -77 -24 -77 -51 0 -31 32 -40 96 -28 138 25 330
-28 413 -115 36 -38 59 -44 79 -24 22 22 13 45 -37 91 -87 81 -199 125 -341
132 -47 2 -107 0 -133 -5z"/>
<path d="M2219 3463 c-78 -48 -77 -160 1 -207 78 -45 180 14 180 104 0 91
-105 150 -181 103z"/>
<path d="M3259 3463 c-78 -48 -77 -160 1 -207 56 -32 130 -12 164 44 61 104
-63 226 -165 163z"/>
<path d="M2523 2575 c14 -96 93 -189 189 -221 61 -20 157 -15 208 11 82 41
145 126 157 210 l6 45 -283 0 -283 0 6 -45z"/>
<path d="M2215 1924 c-315 -48 -504 -179 -531 -367 l-6 -48 -82 -41 c-179 -90
-368 -245 -490 -402 -69 -89 -136 -194 -136 -214 0 -7 57 -70 127 -140 196
-196 389 -335 638 -460 111 -55 297 -132 321 -132 2 0 4 205 4 455 0 250 2
455 5 455 2 0 34 -14 70 -32 l65 -32 0 -446 0 -447 113 -21 c205 -40 270 -46
487 -46 296 -1 484 29 762 120 341 111 675 319 941 586 70 70 127 133 127 140
0 7 -17 40 -37 73 -135 221 -360 428 -589 543 l-82 41 -6 48 c-16 110 -96 212
-212 271 -77 39 -200 77 -294 91 -41 6 -87 14 -102 16 l-28 5 -1 -218 c0 -171
-4 -231 -17 -283 -61 -233 -300 -390 -535 -351 -187 32 -342 171 -389 351 -13
52 -17 112 -17 284 -1 119 -4 217 -8 216 -5 -1 -48 -7 -98 -15z m1303 -1741
c-27 -29 -65 -30 -95 -1 l-23 21 0 381 0 381 68 35 67 35 3 -414 c2 -414 2
-414 -20 -438z"/>
</g>
</svg>
