<?xml version="1.0" standalone="no"?>
<!DOCTYPE svg PUBLIC "-//W3C//DTD SVG 20010904//EN"
 "http://www.w3.org/TR/2001/REC-SVG-20010904/DTD/svg10.dtd">
<svg version="1.0" xmlns="http://www.w3.org/2000/svg"
 width="700.000000pt" height="700.000000pt" viewBox="0 0 700.000000 700.000000"
 preserveAspectRatio="xMidYMid meet">
<metadata>
Created by potrace 1.11, written by Peter Selinger 2001-2013
</metadata>
<g transform="translate(0.000000,700.000000) scale(0.100000,-0.100000)"
fill="#000000" stroke="none">
<path d="M3255 6823 c-473 -58 -733 -235 -879 -600 -20 -50 -36 -98 -36 -107
0 -8 -10 -18 -22 -20 -13 -3 -107 -25 -209 -50 -783 -192 -1349 -555 -1509
-967 -80 -208 -58 -417 66 -630 74 -127 251 -301 419 -411 260 -171 590 -312
957 -408 93 -24 98 -29 98 -98 0 -96 76 -334 146 -460 77 -137 237 -317 347
-390 l38 -25 -88 -22 c-281 -71 -454 -223 -467 -410 l-4 -57 -93 -50 c-399
-214 -685 -530 -790 -873 l-19 -60 133 -130 c285 -281 562 -470 922 -630 125
-55 286 -115 311 -115 12 0 14 93 14 636 0 350 3 634 8 632 4 -2 44 -22 89
-43 l82 -40 1 -622 c0 -343 2 -623 4 -623 2 0 57 -11 123 -24 191 -39 369 -56
594 -56 233 0 365 11 559 46 582 105 1113 376 1562 795 124 115 119 93 61 272
-62 187 -171 354 -340 518 -140 136 -320 265 -474 339 l-47 23 -4 66 c-14 189
-180 332 -476 411 l-42 11 72 58 c264 210 423 500 463 842 l6 56 87 23 c611
160 1094 432 1332 750 49 64 111 190 137 275 27 92 25 267 -5 365 -121 389
-561 724 -1240 944 -146 47 -230 69 -481 128 l-53 13 -34 94 c-46 129 -106
231 -192 322 -203 216 -486 311 -922 307 -96 0 -188 -3 -205 -5z m525 -1233
c299 -27 587 -96 786 -189 88 -42 112 -68 171 -186 71 -141 93 -254 93 -471
l0 -150 51 -13 c60 -16 120 -65 152 -125 21 -39 22 -53 22 -311 0 -258 -1
-272 -22 -311 -39 -73 -125 -134 -190 -134 -10 0 -13 84 -14 383 -1 355 -2
377 -15 312 -30 -147 -54 -347 -64 -515 -11 -210 -33 -309 -95 -437 -75 -154
-186 -246 -296 -247 -66 0 -107 31 -187 137 -118 158 -197 215 -328 238 -79
14 -250 7 -308 -13 -39 -13 -39 -14 -41 -65 l-2 -51 46 -12 c25 -7 109 -15
186 -19 128 -7 145 -10 193 -36 60 -32 104 -92 127 -169 32 -106 8 -218 -71
-337 -97 -147 -210 -173 -354 -80 -65 42 -126 58 -182 47 -18 -3 -66 -26 -105
-50 -81 -48 -135 -61 -192 -46 -87 23 -171 120 -219 250 -20 54 -23 77 -19
140 9 123 51 197 139 245 47 26 65 29 194 36 140 8 218 21 229 39 3 5 1 11 -5
15 -14 8 -13 48 2 63 37 37 -235 68 -364 41 -117 -25 -202 -90 -314 -240 -77
-103 -118 -133 -184 -133 -111 0 -217 89 -296 249 -64 130 -83 218 -95 429 -9
172 -33 371 -63 521 -13 65 -14 43 -15 -312 -1 -278 -4 -383 -12 -383 -35 0
-96 28 -134 62 -74 65 -80 93 -80 383 0 185 4 260 14 288 25 73 97 134 177
151 l32 7 5 187 c5 209 20 284 80 416 62 132 89 164 181 206 199 92 487 163
766 189 136 12 485 13 620 1z m294 -3217 c-6 -211 -16 -268 -64 -368 -80 -167
-242 -285 -433 -317 -263 -43 -544 132 -629 391 -18 55 -22 96 -26 254 -2 104
0 187 5 187 5 0 33 -9 63 -19 129 -45 221 -56 495 -55 282 0 386 14 528 69 34
13 63 24 64 24 1 1 -1 -74 -3 -166z m276 -1281 c0 -487 0 -499 -20 -520 -43
-46 -109 -41 -140 11 -19 31 -20 52 -20 474 l0 442 88 45 c48 25 88 45 90 45
1 1 2 -223 2 -497z"/>
<path d="M2810 4841 c-122 -18 -241 -66 -327 -133 -97 -74 -130 -168 -67 -184
23 -6 33 1 81 55 121 136 340 195 532 146 81 -21 104 -16 109 28 2 19 -4 30
-22 42 -60 40 -201 61 -306 46z"/>
<path d="M3951 4840 c-124 -26 -170 -56 -156 -100 9 -30 49 -35 112 -15 182
58 461 -27 549 -166 29 -47 65 -52 89 -15 15 23 15 27 -4 64 -42 82 -193 180
-333 216 -75 19 -203 27 -257 16z"/>
<path d="M2750 4367 c-42 -15 -80 -68 -80 -114 0 -116 131 -169 214 -87 91 92
-10 244 -134 201z"/>
<path d="M4120 4369 c-64 -26 -100 -94 -80 -153 45 -136 240 -110 240 33 0 57
-26 96 -76 117 -38 16 -50 16 -84 3z"/>
<path d="M3190 3745 c0 -44 49 -100 116 -133 153 -77 388 -30 450 90 31 60 42
58 -276 58 -255 0 -290 -2 -290 -15z"/>
<path d="M3115 3268 c18 -104 106 -207 213 -249 81 -32 223 -32 304 0 107 42
202 155 210 251 l3 35 -368 3 -369 2 7 -42z"/>
</g>
</svg>
